<svg width="24" height="24" viewBox="0 0 24 24" fill="none" xmlns="http://www.w3.org/2000/svg">
<path d="M12.3616 2.25C11.5471 2.25 10.7327 2.63672 10.2698 3.41016L1.45142 18.1465C0.513917 19.7051 1.71509 21.7383 3.53736 21.7383H21.1799C23.0081 21.7383 24.2092 19.7051 23.2776 18.1465L14.4534 3.41016C13.9905 2.63672 13.176 2.25 12.3616 2.25ZM12.3616 3.72656C12.6721 3.72656 12.9827 3.87891 13.1702 4.18359L21.9885 18.9141C22.3577 19.5293 21.9475 20.2383 21.1799 20.2383H3.53736C2.77564 20.2383 2.36548 19.5293 2.73462 18.9141L11.553 4.18359C11.7405 3.87891 12.051 3.72656 12.3616 3.72656ZM11.5999 8.23828V15.7383H13.0999V8.23828H11.5999ZM11.5999 17.2383V18.7383H13.0999V17.2383H11.5999Z" fill="#808080"/>
</svg>
