<svg width="24" height="24" viewBox="0 0 24 24" fill="none" xmlns="http://www.w3.org/2000/svg">
<path d="M6.25 3C5.01367 3 4 4.01367 4 5.25V18.75C4 19.9863 5.01367 21 6.25 21H16.75C17.9863 21 19 19.9863 19 18.75V5.25C19 4.01367 17.9863 3 16.75 3H6.25ZM6.25 4.5H16.75C17.1719 4.5 17.5 4.82812 17.5 5.25V18.75C17.5 19.1719 17.1719 19.5 16.75 19.5H6.25C5.82812 19.5 5.5 19.1719 5.5 18.75V5.25C5.5 4.82812 5.82812 4.5 6.25 4.5ZM7 6V7.5H16V6H7ZM7 10.5V12H8.5V10.5H7ZM10 10.5V12H11.5V10.5H10ZM13 10.5V12H16V10.5H13ZM7 13.5V15H8.5V13.5H7ZM10 13.5V15H11.5V13.5H10ZM13 13.5V15H16V13.5H13ZM7 16.5V18H8.5V16.5H7ZM10 16.5V18H11.5V16.5H10ZM13 16.5V18H16V16.5H13Z" fill="#808080"/>
</svg>
