<svg width="21" height="20" viewBox="0 0 21 20" fill="none" xmlns="http://www.w3.org/2000/svg">
<path d="M2.25 0C1.01367 0 0 1.01367 0 2.25V19.5H21V7.125C21 6.50977 20.4902 6 19.875 6H15V2.25C15 1.01367 13.9863 0 12.75 0H2.25ZM2.25 1.5H12.75C13.1719 1.5 13.5 1.82812 13.5 2.25V18H9V15H6V18H1.5V2.25C1.5 1.82812 1.82812 1.5 2.25 1.5ZM3 3V4.5H4.5V3H3ZM6 3V4.5H9V3H6ZM10.5 3V4.5H12V3H10.5ZM3 6V7.5H4.5V6H3ZM6 6V7.5H9V6H6ZM10.5 6V7.5H12V6H10.5ZM15 7.5H19.5V18H15V7.5ZM3 9V10.5H4.5V9H3ZM6 9V10.5H9V9H6ZM10.5 9V10.5H12V9H10.5ZM16.5 9V10.5H18V9H16.5ZM3 12V13.5H4.5V12H3ZM6 12V13.5H9V12H6ZM10.5 12V13.5H12V12H10.5ZM16.5 12V13.5H18V12H16.5ZM3 15V16.5H4.5V15H3ZM10.5 15V16.5H12V15H10.5ZM16.5 15V16.5H18V15H16.5Z" fill="#808080"/>
</svg>
