<svg width="24" height="24" viewBox="0 0 24 24" fill="none" xmlns="http://www.w3.org/2000/svg">
<path d="M3.25 1C2.01367 1 1 2.01367 1 3.25V20.5H22V8.125C22 7.50977 21.4902 7 20.875 7H16V3.25C16 2.01367 14.9863 1 13.75 1H3.25ZM3.25 2.5H13.75C14.1719 2.5 14.5 2.82812 14.5 3.25V19H10V16H7V19H2.5V3.25C2.5 2.82812 2.82812 2.5 3.25 2.5ZM4 4V5.5H5.5V4H4ZM7 4V5.5H10V4H7ZM11.5 4V5.5H13V4H11.5ZM4 7V8.5H5.5V7H4ZM7 7V8.5H10V7H7ZM11.5 7V8.5H13V7H11.5ZM16 8.5H20.5V19H16V8.5ZM4 10V11.5H5.5V10H4ZM7 10V11.5H10V10H7ZM11.5 10V11.5H13V10H11.5ZM17.5 10V11.5H19V10H17.5ZM4 13V14.5H5.5V13H4ZM7 13V14.5H10V13H7ZM11.5 13V14.5H13V13H11.5ZM17.5 13V14.5H19V13H17.5ZM4 16V17.5H5.5V16H4ZM11.5 16V17.5H13V16H11.5ZM17.5 16V17.5H19V16H17.5Z" fill="white"/>
</svg>
