<svg width="24" height="24" viewBox="0 0 24 24" fill="none" xmlns="http://www.w3.org/2000/svg">
<path d="M12.3618 2.25C11.5474 2.25 10.7329 2.63672 10.27 3.41016L1.45166 18.1465C0.514161 19.7051 1.71533 21.7383 3.5376 21.7383H21.1802C23.0083 21.7383 24.2095 19.7051 23.2778 18.1465L14.4536 3.41016C13.9907 2.63672 13.1763 2.25 12.3618 2.25ZM12.3618 3.72656C12.6724 3.72656 12.9829 3.87891 13.1704 4.18359L21.9888 18.9141C22.3579 19.5293 21.9478 20.2383 21.1802 20.2383H3.5376C2.77588 20.2383 2.36572 19.5293 2.73486 18.9141L11.5532 4.18359C11.7407 3.87891 12.0513 3.72656 12.3618 3.72656ZM11.6001 8.23828V15.7383H13.1001V8.23828H11.6001ZM11.6001 17.2383V18.7383H13.1001V17.2383H11.6001Z" fill="white"/>
</svg>
