<svg width="24" height="24" viewBox="0 0 24 24" fill="none" xmlns="http://www.w3.org/2000/svg">
<path d="M11.25 2C6.19922 2 3 5.78516 3 10.25C3 12.5293 3.85547 14.0234 4.62891 15.1836C5.39648 16.3379 6 17.123 6 18.3125V21.5H7.5L7.5 18.3125C7.5 16.6016 6.60352 15.4531 5.87109 14.3516C5.14453 13.25 4.5 12.1719 4.5 10.25C4.5 7.19141 6.10547 4.69531 9 3.83984V8.42188C8.10938 8.94336 7.5 9.89844 7.5 11C7.5 12.6465 8.85352 14 10.5 14C11.0508 14 11.5664 13.8359 12.0117 13.5723L13.5527 15.1133C13.5176 15.2422 13.5 15.3711 13.5 15.5C13.5 16.3262 14.1738 17 15 17C15.8262 17 16.5 16.3262 16.5 15.5C16.5 14.6738 15.8262 14 15 14C14.8711 14 14.7422 14.0176 14.6133 14.0527L13.0723 12.5117C13.3359 12.0664 13.5 11.5508 13.5 11C13.5 9.35352 12.1465 8 10.5 8V3.56445C10.752 3.54102 10.9863 3.5 11.25 3.5C13.4941 3.5 14.9531 4.19727 15.9609 5.23437C16.9746 6.27148 17.5371 7.69531 17.7539 9.18359C17.7891 9.44141 17.8711 9.69336 18 9.93359L19.4824 12.5937C19.5293 12.6699 19.5059 12.7285 19.4238 12.7637L18 13.291V16.25C18 17.498 17.4844 17.9199 16.916 18.2012C16.3477 18.4883 15.75 18.5 15.75 18.5H15V21.5H16.5V19.8125C16.8516 19.7715 17.0332 19.8184 17.584 19.5488C18.5156 19.0801 19.5 18.002 19.5 16.25V14.334L19.9922 14.1523L20.0039 14.1465C20.8828 13.7773 21.2578 12.6992 20.7949 11.8672L19.3125 9.20703C19.2773 9.14258 19.248 9.06641 19.2363 8.97266C18.9844 7.25 18.334 5.50977 17.0391 4.18555C15.7441 2.86133 13.8164 2 11.25 2ZM10.5 9.5C11.3379 9.5 12 10.1621 12 11C12 11.8379 11.3379 12.5 10.5 12.5C9.66211 12.5 9 11.8379 9 11C9 10.1621 9.66211 9.5 10.5 9.5Z" fill="white"/>
</svg>
