<svg width="24" height="24" viewBox="0 0 24 24" fill="none" xmlns="http://www.w3.org/2000/svg">
<path d="M3.37495 3.375C2.13863 3.375 1.12495 4.38867 1.12495 5.625L1.12495 17.625C1.12495 18.8613 2.13863 19.875 3.37495 19.875L19.875 19.875C21.1113 19.875 22.125 18.8613 22.125 17.625V5.625C22.125 4.38867 21.1113 3.375 19.875 3.375L3.37495 3.375ZM3.37495 4.875L19.875 4.875C19.9277 4.875 19.9687 4.89258 20.0156 4.9043L11.625 10.7109L3.23433 4.9043C3.2812 4.89258 3.32222 4.875 3.37495 4.875ZM2.62495 6.30469L11.625 12.5391L20.625 6.30469V17.625C20.625 18.0469 20.2968 18.375 19.875 18.375H3.37495C2.95308 18.375 2.62495 18.0469 2.62495 17.625L2.62495 6.30469Z" fill="white"/>
</svg>
