<svg width="24" height="24" viewBox="0 0 24 24" fill="none" xmlns="http://www.w3.org/2000/svg">
<path d="M5.80563 2.25L3.4443 4.61133C2.14938 5.90625 1.86813 7.92187 2.79391 9.5039C3.82516 11.2734 4.66891 12.5801 8.20212 16.1074C11.7295 19.6406 12.6904 20.1211 14.4306 21.1406C16.0185 22.0664 18.0283 21.7852 19.3174 20.4902L21.6845 18.1289L17.1142 13.5645L15.2568 15.4219C15.0341 15.3223 14.7002 15.1465 14.3134 14.9004C13.5166 14.3906 12.497 13.6113 11.6006 12.709C10.6982 11.8125 9.8193 10.6934 9.20993 9.79102C8.9111 9.3457 8.67087 8.94141 8.54196 8.67773C8.5361 8.66602 8.5361 8.66602 8.53024 8.6543L10.3701 6.81445L5.80563 2.25ZM5.80563 4.37109L8.24899 6.81445L7.17673 7.89258C6.95407 8.11523 6.93063 8.36133 6.93649 8.50195C6.93649 8.63672 6.95993 8.73047 6.98337 8.81836C7.0361 9 7.10641 9.1582 7.1943 9.3457C7.37595 9.70898 7.63962 10.1426 7.96774 10.6348C8.62399 11.6074 9.54977 12.7852 10.5341 13.7754C11.5244 14.7598 12.6142 15.5918 13.5107 16.1602C13.956 16.4473 14.3486 16.6641 14.6826 16.8105C14.8525 16.8867 15.0049 16.9453 15.1865 16.9805C15.2744 16.998 15.374 17.0098 15.5088 16.998C15.6435 16.9922 15.8545 16.9453 16.042 16.7578L17.1142 15.6855L19.5634 18.1289L18.2568 19.4355C17.4424 20.25 16.1826 20.4258 15.1865 19.8457C13.417 18.8086 12.7431 18.5332 9.2568 15.0527C5.77634 11.5664 5.10837 10.4941 4.08884 8.74805C3.50876 7.75195 3.68454 6.49219 4.49899 5.67773L5.80563 4.37109Z" fill="white"/>
</svg>
