<svg width="24" height="24" viewBox="0 0 24 24" fill="none" xmlns="http://www.w3.org/2000/svg">
<path d="M5 2V3.5L4.25 3.5C3.01367 3.5 2 4.51367 2 5.75L2 19.25C2 20.4863 3.01367 21.5 4.25 21.5L19.25 21.5C20.4863 21.5 21.5 20.4863 21.5 19.25L21.5 5.75C21.5 4.51367 20.4863 3.5 19.25 3.5L18.5 3.5V2L17 2V3.5L6.5 3.5V2H5ZM4.25 5H5V6.5L6.5 6.5L6.5 5L17 5V6.5H18.5V5H19.25C19.6719 5 20 5.32812 20 5.75V8L3.5 8L3.5 5.75C3.5 5.32812 3.82813 5 4.25 5ZM3.5 9.5L20 9.5L20 19.25C20 19.6719 19.6719 20 19.25 20L4.25 20C3.82813 20 3.5 19.6719 3.5 19.25L3.5 9.5ZM8 11V12.5L9.5 12.5V11L8 11ZM11 11V12.5H12.5V11H11ZM14 11V12.5H15.5V11H14ZM17 11V12.5H18.5V11H17ZM5 14V15.5H6.5V14H5ZM8 14V15.5L9.5 15.5V14L8 14ZM11 14V15.5H12.5V14H11ZM14 14V15.5H15.5V14H14ZM17 14V15.5H18.5V14H17ZM5 17V18.5H6.5V17H5ZM8 17V18.5H9.5V17H8ZM11 17V18.5H12.5V17H11Z" fill="white"/>
</svg>
