<svg width="24" height="24" viewBox="0 0 24 24" fill="none" xmlns="http://www.w3.org/2000/svg">
<path d="M11.75 2C8.49219 2 5.60352 3.59961 3.82812 6.06055C3.81055 6.08984 3.78711 6.11914 3.76953 6.1543C3.36523 6.73438 3.04883 7.35547 2.7793 8H4.40234C4.58984 7.63086 4.80664 7.2793 5.04688 6.93945C6.54688 4.85938 8.98438 3.5 11.75 3.5C16.3145 3.5 20 7.18555 20 11.75C20 16.3145 16.3145 20 11.75 20C9.06055 20 6.68164 18.7227 5.17578 16.7363C4.87695 16.3438 4.625 15.9277 4.4082 15.5H2.7793C3.07812 16.2148 3.44141 16.9004 3.91016 17.5391C3.92773 17.5684 3.95117 17.5977 3.96875 17.6328C3.97461 17.6328 3.97461 17.6387 3.98047 17.6387C3.98047 17.6445 3.98047 17.6445 3.98047 17.6445C5.76172 19.9824 8.58594 21.5 11.75 21.5C17.1289 21.5 21.5 17.1289 21.5 11.75C21.5 6.37109 17.1289 2 11.75 2ZM12.5 8V11H2V12.5H12.5V15.5L16.25 11.75L12.5 8Z" fill="white"/>
</svg>
