<svg width="187" height="39" viewBox="0 0 187 39" fill="none" xmlns="http://www.w3.org/2000/svg">
<ellipse cx="11.6449" cy="11.6637" rx="11.6449" ry="11.6637" transform="matrix(-0.799554 0.600595 -0.596227 -0.802816 35.2734 18.7275)" fill="white"/>
<path fill-rule="evenodd" clip-rule="evenodd" d="M34.3275 8.64139H30.1635C31.2212 10.0473 31.8648 11.257 32.3212 12.6617C32.8812 14.3853 32.9941 15.1656 32.9938 17.3106C32.9936 19.0853 32.9684 19.366 32.7217 20.3508C32.241 22.2693 31.7069 23.4791 30.6626 25.0153C28.6546 27.969 25.5502 30.0619 21.9949 30.8589C21.0786 31.0643 20.641 31.0996 19.0265 31.0986C16.9602 31.0971 16.1967 30.9824 14.5659 30.4282C12.5258 29.735 10.807 28.6489 9.19595 27.0351C6.67747 24.5123 5.28752 21.4259 5.04594 17.8202C4.84494 14.8204 5.87792 11.4537 7.82844 8.64139H3.85985C2.34737 10.5935 0.991186 13.5413 0.340325 16.3869C0.103667 17.4217 0.0508488 17.9259 0.0110305 19.5312C-0.0176305 20.6846 0.0107235 21.8072 0.0825806 22.3611C1.18316 30.846 7.78532 37.5834 16.2115 38.8205C17.9389 39.0741 20.4274 39.0573 22.0973 38.7809C27.3811 37.9061 31.9767 34.9544 34.9021 30.5565C36.526 28.1149 37.4991 25.5748 37.9227 22.6706C38.1523 21.0964 38.0777 18.1488 37.7712 16.6805C37.1004 13.4693 35.8163 10.5633 34.3275 8.64139Z" fill="white"/>
<path d="M63.0734 10.82L70.2838 18.6579H65.3626L60.6072 13.5105L55.874 18.6579H50.9639L58.1632 10.82L51.3178 3.38228H56.239L60.6072 8.16287L64.9976 3.38228H69.9189L63.0734 10.82Z" fill="white"/>
<path d="M88.2377 15.7673H79.7666L78.34 18.6579H73.7616L81.713 3.38228H86.2914L94.2427 18.6579H89.6643L88.2377 15.7673ZM81.2374 12.7878H86.789L84.0243 7.16228L81.2374 12.7878Z" fill="white"/>
<path d="M107.419 6.70646V18.6579H103.316V6.70646H96.869V3.38228H113.878V6.70646H107.419Z" fill="white"/>
<path d="M129.708 10.82L136.919 18.6579H131.997L127.242 13.5105L122.509 18.6579H117.599L124.798 10.82L117.953 3.38228H122.874L127.242 8.16287L131.632 3.38228H136.554L129.708 10.82Z" fill="white"/>
<path d="M162.216 11.0312C162.216 12.3431 161.976 13.503 161.497 14.511C161.018 15.5116 160.332 16.3492 159.44 17.0236C158.548 17.6981 157.464 18.2095 156.189 18.5579C154.921 18.8988 153.494 19.0693 151.909 19.0693C150.324 19.0693 148.89 18.8988 147.607 18.5579C146.331 18.2095 145.244 17.6981 144.344 17.0236C143.445 16.3492 142.752 15.5116 142.265 14.511C141.779 13.503 141.536 12.3431 141.536 11.0312C141.536 9.71934 141.779 8.5631 142.265 7.56252C142.752 6.55452 143.445 5.71328 144.344 5.03881C145.244 4.36434 146.331 3.85663 147.607 3.51569C148.89 3.16734 150.324 2.99316 151.909 2.99316C153.494 2.99316 154.921 3.16734 156.189 3.51569C157.464 3.85663 158.548 4.36434 159.44 5.03881C160.332 5.71328 161.018 6.55452 161.497 7.56252C161.976 8.5631 162.216 9.71934 162.216 11.0312ZM158.069 11.0312C158.069 10.4605 157.976 9.89352 157.792 9.33022C157.615 8.75952 157.294 8.2481 156.83 7.79599C156.373 7.34387 155.746 6.97699 154.95 6.69534C154.154 6.41369 153.14 6.27287 151.909 6.27287C151.083 6.27287 150.357 6.33958 149.73 6.47299C149.104 6.59899 148.562 6.77687 148.105 7.00663C147.647 7.2364 147.264 7.50693 146.954 7.81822C146.645 8.1221 146.398 8.45193 146.213 8.80769C146.029 9.15604 145.896 9.52293 145.815 9.90834C145.742 10.2863 145.705 10.6606 145.705 11.0312C145.705 11.4092 145.742 11.7909 145.815 12.1763C145.896 12.5618 146.029 12.9323 146.213 13.2881C146.398 13.6365 146.645 13.9626 146.954 14.2665C147.264 14.5703 147.647 14.8372 148.105 15.0669C148.562 15.2893 149.104 15.4672 149.73 15.6006C150.357 15.7266 151.083 15.7896 151.909 15.7896C153.14 15.7896 154.154 15.6487 154.95 15.3671C155.746 15.0855 156.373 14.7186 156.83 14.2665C157.294 13.8143 157.615 13.3066 157.792 12.7433C157.976 12.1726 158.069 11.6019 158.069 11.0312Z" fill="white"/>
<path d="M186.086 8.59646C186.086 9.35987 185.976 10.064 185.754 10.7088C185.533 11.3462 185.176 11.8984 184.682 12.3653C184.195 12.8249 183.561 13.1843 182.78 13.4438C181.998 13.7032 181.047 13.8329 179.926 13.8329H173.114V18.6579H169.011V3.38228H179.926C181.047 3.38228 181.998 3.51199 182.78 3.7714C183.561 4.0234 184.195 4.38287 184.682 4.84981C185.176 5.30934 185.533 5.85781 185.754 6.49522C185.976 7.13263 186.086 7.83305 186.086 8.59646ZM181.939 8.66316C181.939 8.3074 181.887 8.00352 181.784 7.75152C181.688 7.4921 181.526 7.28087 181.298 7.11781C181.069 6.95475 180.771 6.83616 180.402 6.76205C180.033 6.68052 179.58 6.63975 179.042 6.63975H173.114V10.5754H179.042C179.58 10.5754 180.033 10.5458 180.402 10.4865C180.771 10.4198 181.069 10.3123 181.298 10.164C181.526 10.0084 181.688 9.80828 181.784 9.56369C181.887 9.3191 181.939 9.01893 181.939 8.66316Z" fill="white"/>
<path d="M55.1838 35.8823C53.9909 35.8823 53.0019 35.4877 52.2168 34.6983C51.4316 33.9014 51.0391 32.9186 51.0391 31.7498C51.0391 30.5809 51.4316 29.6019 52.2168 28.8126C53.0019 28.0156 53.9909 27.6172 55.1838 27.6172C55.901 27.6172 56.5616 27.788 57.1655 28.1295C57.777 28.471 58.2527 28.934 58.5924 29.5184L57.46 30.1787C57.2486 29.784 56.939 29.4729 56.5314 29.2452C56.1312 29.0099 55.682 28.8922 55.1838 28.8922C54.3382 28.8922 53.6512 29.1617 53.1227 29.7005C52.6018 30.2394 52.3414 30.9225 52.3414 31.7498C52.3414 32.577 52.6018 33.2601 53.1227 33.799C53.6512 34.3378 54.3382 34.6073 55.1838 34.6073C55.682 34.6073 56.135 34.4934 56.5427 34.2657C56.9504 34.0304 57.2561 33.7155 57.46 33.3208L58.5924 33.9697C58.2602 34.5541 57.7884 35.0209 57.1769 35.37C56.5729 35.7116 55.9085 35.8823 55.1838 35.8823Z" fill="white"/>
<path d="M65.1113 27.7652V29.0175H62.8804V35.7343H61.5781V29.0175H59.3359V27.7652H65.1113Z" fill="white"/>
<path d="M69.3357 27.7652C70.0831 27.7652 70.706 28.0156 71.2043 28.5166C71.7101 29.0175 71.963 29.6398 71.963 30.3836C71.963 31.1198 71.7101 31.7422 71.2043 32.2507C70.706 32.7516 70.0831 33.002 69.3357 33.002H67.7164V35.7343H66.4141V27.7652H69.3357ZM69.3357 31.7725C69.7208 31.7725 70.0378 31.6435 70.287 31.3854C70.5361 31.1198 70.6607 30.7859 70.6607 30.3836C70.6607 29.9814 70.5361 29.6512 70.287 29.3932C70.0378 29.1275 69.7208 28.9947 69.3357 28.9947H67.7164V31.7725H69.3357Z" fill="white"/>
<path d="M77.801 35.7343L77.2461 34.1291H73.8715L73.3166 35.7343H71.9011L74.7774 27.7652H76.3402L79.2052 35.7343H77.801ZM74.3018 32.8996H76.8158L75.5588 29.3021L74.3018 32.8996Z" fill="white"/>
<path d="M86.2294 35.7343H84.7459L83.002 32.854L81.258 35.7343H79.7746L82.2659 31.6359L79.9218 27.7652H81.3939L83.002 30.4178L84.6101 27.7652H86.0935L83.7494 31.6359L86.2294 35.7343Z" fill="white"/>
<path d="M93.7539 34.6869C92.9612 35.4839 91.9911 35.8823 90.8436 35.8823C89.696 35.8823 88.7221 35.4839 87.9219 34.6869C87.1292 33.8824 86.7328 32.9034 86.7328 31.7498C86.7328 30.5961 87.1292 29.6209 87.9219 28.8239C88.7221 28.0194 89.696 27.6172 90.8436 27.6172C91.9911 27.6172 92.9612 28.0194 93.7539 28.8239C94.5542 29.6209 94.9543 30.5961 94.9543 31.7498C94.9543 32.9034 94.5542 33.8824 93.7539 34.6869ZM88.8392 33.799C89.3827 34.3378 90.0509 34.6073 90.8436 34.6073C91.6363 34.6073 92.3006 34.3378 92.8367 33.799C93.3802 33.2525 93.652 32.5694 93.652 31.7498C93.652 30.9301 93.3802 30.2508 92.8367 29.7119C92.3006 29.1655 91.6363 28.8922 90.8436 28.8922C90.0509 28.8922 89.3827 29.1655 88.8392 29.7119C88.3031 30.2508 88.0351 30.9301 88.0351 31.7498C88.0351 32.5694 88.3031 33.2525 88.8392 33.799Z" fill="white"/>
<path d="M101.148 31.6018C101.495 31.7839 101.767 32.0344 101.963 32.3531C102.159 32.6719 102.257 33.04 102.257 33.4574C102.257 34.1101 102.027 34.6528 101.567 35.0854C101.106 35.518 100.544 35.7343 99.8792 35.7343H96.4819V27.7652H99.6301C100.279 27.7652 100.827 27.9777 101.272 28.4027C101.725 28.8201 101.952 29.3438 101.952 29.9738C101.952 30.6644 101.684 31.2071 101.148 31.6018ZM99.6301 28.9947H97.7842V31.0895H99.6301C99.917 31.0895 100.159 30.9908 100.355 30.7935C100.551 30.5885 100.649 30.3381 100.649 30.0421C100.649 29.7461 100.551 29.4994 100.355 29.3021C100.159 29.0972 99.917 28.9947 99.6301 28.9947ZM99.8792 34.5048C100.181 34.5048 100.434 34.3985 100.638 34.186C100.849 33.9659 100.955 33.7003 100.955 33.3891C100.955 33.0779 100.849 32.8161 100.638 32.6036C100.434 32.3835 100.181 32.2734 99.8792 32.2734H97.7842V34.5048H99.8792Z" fill="white"/>
<path d="M108.897 35.7343L108.342 34.1291H104.968L104.413 35.7343H102.997L105.874 27.7652H107.437L110.302 35.7343H108.897ZM105.398 32.8996H107.912L106.655 29.3021L105.398 32.8996Z" fill="white"/>
<path d="M117.019 27.7652V35.7343H115.716V32.8313H114.459L112.546 35.7343H111.073L113.089 32.7174C112.568 32.5581 112.138 32.2583 111.798 31.8181C111.466 31.3703 111.3 30.8731 111.3 30.3267C111.3 29.6133 111.545 29.0099 112.036 28.5166C112.534 28.0156 113.138 27.7652 113.848 27.7652H117.019ZM113.848 31.6587H115.716V28.9947H113.848C113.501 28.9947 113.206 29.1237 112.965 29.3818C112.723 29.6398 112.602 29.9548 112.602 30.3267C112.602 30.6986 112.723 31.0136 112.965 31.2716C113.206 31.5297 113.501 31.6587 113.848 31.6587Z" fill="white"/>
<path d="M128.094 35.7343H126.543L123.417 31.9433V35.7343H122.115V27.7652H123.417V31.3399L126.43 27.7652H127.981L124.776 31.6473L128.094 35.7343Z" fill="white"/>
<path d="M135.228 34.6869C134.436 35.4839 133.466 35.8823 132.318 35.8823C131.171 35.8823 130.197 35.4839 129.396 34.6869C128.604 33.8824 128.207 32.9034 128.207 31.7498C128.207 30.5961 128.604 29.6209 129.396 28.8239C130.197 28.0194 131.171 27.6172 132.318 27.6172C133.466 27.6172 134.436 28.0194 135.228 28.8239C136.029 29.6209 136.429 30.5961 136.429 31.7498C136.429 32.9034 136.029 33.8824 135.228 34.6869ZM130.314 33.799C130.857 34.3378 131.525 34.6073 132.318 34.6073C133.111 34.6073 133.775 34.3378 134.311 33.799C134.855 33.2525 135.126 32.5694 135.126 31.7498C135.126 30.9301 134.855 30.2508 134.311 29.7119C133.775 29.1655 133.111 28.8922 132.318 28.8922C131.525 28.8922 130.857 29.1655 130.314 29.7119C129.778 30.2508 129.51 30.9301 129.51 31.7498C129.51 32.5694 129.778 33.2525 130.314 33.799Z" fill="white"/>
<path d="M145.544 27.7652V35.7343H144.241V30.0535L141.829 34.0608H141.671L139.259 30.0421V35.7343H137.956V27.7652H139.361L141.75 31.7498L144.151 27.7652H145.544Z" fill="white"/>
<path d="M153.296 27.7652V35.7343H151.994V29.0175H148.766V35.7343H147.464V27.7652H153.296Z" fill="white"/>
<path d="M160.388 35.7343L159.833 34.1291H156.459L155.904 35.7343H154.488L157.365 27.7652H158.927L161.792 35.7343H160.388ZM156.889 32.8996H159.403L158.146 29.3021L156.889 32.8996Z" fill="white"/>
<path d="M167.684 27.7652H168.986V35.7343H167.684V32.2848H164.287V35.7343H162.985V27.7652H164.287V31.0325H167.684V27.7652Z" fill="white"/>
<path d="M175.667 35.7343V30.3267L171.93 35.7343H170.911V27.7652H172.213V33.1728L175.95 27.7652H176.969V35.7343H175.667Z" fill="white"/>
<path d="M184.362 27.7652V35.7343H183.059V32.8313H181.802L179.889 35.7343H178.417L180.432 32.7174C179.911 32.5581 179.481 32.2583 179.141 31.8181C178.809 31.3703 178.643 30.8731 178.643 30.3267C178.643 29.6133 178.888 29.0099 179.379 28.5166C179.877 28.0156 180.481 27.7652 181.191 27.7652H184.362ZM181.191 31.6587H183.059V28.9947H181.191C180.844 28.9947 180.549 29.1237 180.308 29.3818C180.066 29.6398 179.945 29.9548 179.945 30.3267C179.945 30.6986 180.066 31.0136 180.308 31.2716C180.549 31.5297 180.844 31.6587 181.191 31.6587Z" fill="white"/>
</svg>
