<svg width="187" height="39" viewBox="0 0 187 39" fill="none" xmlns="http://www.w3.org/2000/svg">
<ellipse cx="11.6449" cy="11.6637" rx="11.6449" ry="11.6637" transform="matrix(-0.799554 0.600595 -0.596227 -0.802816 35.2734 18.7275)" fill="url(#paint0_linear_3801_66)"/>
<path fill-rule="evenodd" clip-rule="evenodd" d="M34.3275 8.6416H30.1635C31.2212 10.0475 31.8648 11.2573 32.3212 12.6619C32.8812 14.3855 32.9941 15.1658 32.9938 17.3108C32.9936 19.0855 32.9684 19.3662 32.7217 20.351C32.241 22.2695 31.7069 23.4793 30.6626 25.0155C28.6546 27.9692 25.5502 30.0621 21.9949 30.8591C21.0786 31.0645 20.641 31.0998 19.0265 31.0988C16.9602 31.0973 16.1967 30.9826 14.5659 30.4285C12.5258 29.7352 10.807 28.6491 9.19595 27.0353C6.67747 24.5125 5.28752 21.4261 5.04594 17.8204C4.84494 14.8206 5.87792 11.4539 7.82844 8.6416H3.85985C2.34737 10.5937 0.991186 13.5415 0.340325 16.3871C0.103667 17.4219 0.0508488 17.9261 0.0110305 19.5314C-0.0176305 20.6849 0.0107235 21.8074 0.0825806 22.3613C1.18316 30.8462 7.78532 37.5836 16.2115 38.8207C17.9389 39.0743 20.4274 39.0575 22.0973 38.7811C27.3811 37.9063 31.9767 34.9546 34.9021 30.5567C36.526 28.1151 37.4991 25.575 37.9227 22.6708C38.1523 21.0966 38.0777 18.149 37.7712 16.6808C37.1004 13.4695 35.8163 10.5636 34.3275 8.6416Z" fill="#14A0C1"/>
<path d="M63.0744 10.82L70.2848 18.6579H65.3636L60.6082 13.5105L55.875 18.6579H50.9648L58.1642 10.82L51.3187 3.38228H56.2399L60.6082 8.16287L64.9986 3.38228H69.9198L63.0744 10.82Z" fill="white"/>
<path d="M88.2387 15.7673H79.7676L78.341 18.6579H73.7626L81.7139 3.38228H86.2923L94.2437 18.6579H89.6653L88.2387 15.7673ZM81.2384 12.7878H86.79L84.0253 7.16228L81.2384 12.7878Z" fill="white"/>
<path d="M107.42 6.70646V18.6579H103.317V6.70646H96.87V3.38228H113.879V6.70646H107.42Z" fill="white"/>
<path d="M129.709 10.82L136.92 18.6579H131.998L127.243 13.5105L122.51 18.6579H117.6L124.799 10.82L117.954 3.38228H122.875L127.243 8.16287L131.633 3.38228H136.555L129.709 10.82Z" fill="white"/>
<path d="M162.217 11.0312C162.217 12.3431 161.977 13.503 161.498 14.511C161.019 15.5116 160.333 16.3492 159.441 17.0236C158.549 17.6981 157.465 18.2095 156.19 18.5579C154.921 18.8988 153.495 19.0693 151.91 19.0693C150.325 19.0693 148.891 18.8988 147.608 18.5579C146.332 18.2095 145.245 17.6981 144.345 17.0236C143.446 16.3492 142.753 15.5116 142.266 14.511C141.78 13.503 141.537 12.3431 141.537 11.0312C141.537 9.71934 141.78 8.5631 142.266 7.56252C142.753 6.55452 143.446 5.71328 144.345 5.03881C145.245 4.36434 146.332 3.85663 147.608 3.51569C148.891 3.16734 150.325 2.99316 151.91 2.99316C153.495 2.99316 154.921 3.16734 156.19 3.51569C157.465 3.85663 158.549 4.36434 159.441 5.03881C160.333 5.71328 161.019 6.55452 161.498 7.56252C161.977 8.5631 162.217 9.71934 162.217 11.0312ZM158.07 11.0312C158.07 10.4605 157.977 9.89352 157.793 9.33022C157.616 8.75952 157.295 8.2481 156.831 7.79599C156.374 7.34387 155.747 6.97699 154.951 6.69534C154.155 6.41369 153.141 6.27287 151.91 6.27287C151.084 6.27287 150.358 6.33958 149.731 6.47299C149.104 6.59899 148.563 6.77687 148.105 7.00663C147.648 7.2364 147.265 7.50693 146.955 7.81822C146.646 8.1221 146.399 8.45193 146.214 8.80769C146.03 9.15604 145.897 9.52293 145.816 9.90834C145.743 10.2863 145.706 10.6606 145.706 11.0312C145.706 11.4092 145.743 11.7909 145.816 12.1763C145.897 12.5618 146.03 12.9323 146.214 13.2881C146.399 13.6365 146.646 13.9626 146.955 14.2665C147.265 14.5703 147.648 14.8372 148.105 15.0669C148.563 15.2893 149.104 15.4672 149.731 15.6006C150.358 15.7266 151.084 15.7896 151.91 15.7896C153.141 15.7896 154.155 15.6487 154.951 15.3671C155.747 15.0855 156.374 14.7186 156.831 14.2665C157.295 13.8143 157.616 13.3066 157.793 12.7433C157.977 12.1726 158.07 11.6019 158.07 11.0312Z" fill="white"/>
<path d="M186.087 8.59646C186.087 9.35987 185.977 10.064 185.755 10.7088C185.534 11.3462 185.177 11.8984 184.683 12.3653C184.196 12.8249 183.562 13.1843 182.781 13.4438C181.999 13.7032 181.048 13.8329 179.927 13.8329H173.115V18.6579H169.012V3.38228H179.927C181.048 3.38228 181.999 3.51199 182.781 3.7714C183.562 4.0234 184.196 4.38287 184.683 4.84981C185.177 5.30934 185.534 5.85781 185.755 6.49522C185.977 7.13263 186.087 7.83305 186.087 8.59646ZM181.94 8.66316C181.94 8.3074 181.888 8.00352 181.785 7.75152C181.689 7.4921 181.527 7.28087 181.299 7.11781C181.07 6.95475 180.771 6.83616 180.403 6.76205C180.034 6.68052 179.581 6.63975 179.043 6.63975H173.115V10.5754H179.043C179.581 10.5754 180.034 10.5458 180.403 10.4865C180.771 10.4198 181.07 10.3123 181.299 10.164C181.527 10.0084 181.689 9.80828 181.785 9.56369C181.888 9.3191 181.94 9.01893 181.94 8.66316Z" fill="white"/>
<path d="M55.1857 35.8823C53.9929 35.8823 53.0039 35.4877 52.2187 34.6983C51.4336 33.9014 51.041 32.9186 51.041 31.7498C51.041 30.5809 51.4336 29.6019 52.2187 28.8126C53.0039 28.0156 53.9929 27.6172 55.1857 27.6172C55.9029 27.6172 56.5635 27.788 57.1675 28.1295C57.779 28.471 58.2546 28.934 58.5943 29.5184L57.4619 30.1787C57.2505 29.784 56.941 29.4729 56.5333 29.2452C56.1332 29.0099 55.684 28.8922 55.1857 28.8922C54.3402 28.8922 53.6532 29.1617 53.1247 29.7005C52.6038 30.2394 52.3433 30.9225 52.3433 31.7498C52.3433 32.577 52.6038 33.2601 53.1247 33.799C53.6532 34.3378 54.3402 34.6073 55.1857 34.6073C55.684 34.6073 56.137 34.4934 56.5446 34.2657C56.9523 34.0304 57.2581 33.7155 57.4619 33.3208L58.5943 33.9697C58.2622 34.5541 57.7903 35.0209 57.1788 35.37C56.5748 35.7116 55.9105 35.8823 55.1857 35.8823Z" fill="white"/>
<path d="M65.1133 27.7652V29.0175H62.8824V35.7343H61.5801V29.0175H59.3379V27.7652H65.1133Z" fill="white"/>
<path d="M69.3377 27.7652C70.0851 27.7652 70.7079 28.0156 71.2062 28.5166C71.712 29.0175 71.9649 29.6398 71.9649 30.3836C71.9649 31.1198 71.712 31.7422 71.2062 32.2507C70.7079 32.7516 70.0851 33.002 69.3377 33.002H67.7183V35.7343H66.416V27.7652H69.3377ZM69.3377 31.7725C69.7227 31.7725 70.0398 31.6435 70.2889 31.3854C70.5381 31.1198 70.6626 30.7859 70.6626 30.3836C70.6626 29.9814 70.5381 29.6512 70.2889 29.3932C70.0398 29.1275 69.7227 28.9947 69.3377 28.9947H67.7183V31.7725H69.3377Z" fill="white"/>
<path d="M77.803 35.7343L77.2481 34.1291H73.8734L73.3185 35.7343H71.903L74.7794 27.7652H76.3421L79.2072 35.7343H77.803ZM74.3038 32.8996H76.8178L75.5608 29.3021L74.3038 32.8996Z" fill="white"/>
<path d="M86.2314 35.7343H84.7479L83.0039 32.854L81.26 35.7343H79.7765L82.2679 31.6359L79.9237 27.7652H81.3959L83.0039 30.4178L84.612 27.7652H86.0955L83.7514 31.6359L86.2314 35.7343Z" fill="white"/>
<path d="M93.7559 34.6869C92.9632 35.4839 91.993 35.8823 90.8455 35.8823C89.698 35.8823 88.7241 35.4839 87.9238 34.6869C87.1311 33.8824 86.7348 32.9034 86.7348 31.7498C86.7348 30.5961 87.1311 29.6209 87.9238 28.8239C88.7241 28.0194 89.698 27.6172 90.8455 27.6172C91.993 27.6172 92.9632 28.0194 93.7559 28.8239C94.5561 29.6209 94.9563 30.5961 94.9563 31.7498C94.9563 32.9034 94.5561 33.8824 93.7559 34.6869ZM88.8411 33.799C89.3847 34.3378 90.0528 34.6073 90.8455 34.6073C91.6382 34.6073 92.3026 34.3378 92.8386 33.799C93.3822 33.2525 93.654 32.5694 93.654 31.7498C93.654 30.9301 93.3822 30.2508 92.8386 29.7119C92.3026 29.1655 91.6382 28.8922 90.8455 28.8922C90.0528 28.8922 89.3847 29.1655 88.8411 29.7119C88.3051 30.2508 88.0371 30.9301 88.0371 31.7498C88.0371 32.5694 88.3051 33.2525 88.8411 33.799Z" fill="white"/>
<path d="M101.15 31.6018C101.497 31.7839 101.769 32.0344 101.965 32.3531C102.161 32.6719 102.259 33.04 102.259 33.4574C102.259 34.1101 102.029 34.6528 101.569 35.0854C101.108 35.518 100.546 35.7343 99.8812 35.7343H96.4839V27.7652H99.6321C100.281 27.7652 100.829 27.9777 101.274 28.4027C101.727 28.8201 101.954 29.3438 101.954 29.9738C101.954 30.6644 101.686 31.2071 101.15 31.6018ZM99.6321 28.9947H97.7862V31.0895H99.6321C99.9189 31.0895 100.161 30.9908 100.357 30.7935C100.553 30.5885 100.651 30.3381 100.651 30.0421C100.651 29.7461 100.553 29.4994 100.357 29.3021C100.161 29.0972 99.9189 28.9947 99.6321 28.9947ZM99.8812 34.5048C100.183 34.5048 100.436 34.3985 100.64 34.186C100.851 33.9659 100.957 33.7003 100.957 33.3891C100.957 33.0779 100.851 32.8161 100.64 32.6036C100.436 32.3835 100.183 32.2734 99.8812 32.2734H97.7862V34.5048H99.8812Z" fill="white"/>
<path d="M108.899 35.7343L108.344 34.1291H104.97L104.415 35.7343H102.999L105.876 27.7652H107.439L110.304 35.7343H108.899ZM105.4 32.8996H107.914L106.657 29.3021L105.4 32.8996Z" fill="white"/>
<path d="M117.021 27.7652V35.7343H115.718V32.8313H114.461L112.548 35.7343H111.075L113.091 32.7174C112.57 32.5581 112.14 32.2583 111.8 31.8181C111.468 31.3703 111.302 30.8731 111.302 30.3267C111.302 29.6133 111.547 29.0099 112.038 28.5166C112.536 28.0156 113.14 27.7652 113.85 27.7652H117.021ZM113.85 31.6587H115.718V28.9947H113.85C113.503 28.9947 113.208 29.1237 112.967 29.3818C112.725 29.6398 112.604 29.9548 112.604 30.3267C112.604 30.6986 112.725 31.0136 112.967 31.2716C113.208 31.5297 113.503 31.6587 113.85 31.6587Z" fill="white"/>
<path d="M128.096 35.7343H126.545L123.419 31.9433V35.7343H122.117V27.7652H123.419V31.3399L126.432 27.7652H127.983L124.778 31.6473L128.096 35.7343Z" fill="white"/>
<path d="M135.23 34.6869C134.438 35.4839 133.468 35.8823 132.32 35.8823C131.172 35.8823 130.199 35.4839 129.398 34.6869C128.606 33.8824 128.209 32.9034 128.209 31.7498C128.209 30.5961 128.606 29.6209 129.398 28.8239C130.199 28.0194 131.172 27.6172 132.32 27.6172C133.468 27.6172 134.438 28.0194 135.23 28.8239C136.031 29.6209 136.431 30.5961 136.431 31.7498C136.431 32.9034 136.031 33.8824 135.23 34.6869ZM130.316 33.799C130.859 34.3378 131.527 34.6073 132.32 34.6073C133.113 34.6073 133.777 34.3378 134.313 33.799C134.857 33.2525 135.128 32.5694 135.128 31.7498C135.128 30.9301 134.857 30.2508 134.313 29.7119C133.777 29.1655 133.113 28.8922 132.32 28.8922C131.527 28.8922 130.859 29.1655 130.316 29.7119C129.78 30.2508 129.512 30.9301 129.512 31.7498C129.512 32.5694 129.78 33.2525 130.316 33.799Z" fill="white"/>
<path d="M145.546 27.7652V35.7343H144.243V30.0535L141.831 34.0608H141.673L139.261 30.0421V35.7343H137.958V27.7652H139.363L141.752 31.7498L144.153 27.7652H145.546Z" fill="white"/>
<path d="M153.298 27.7652V35.7343H151.996V29.0175H148.768V35.7343H147.466V27.7652H153.298Z" fill="white"/>
<path d="M160.39 35.7343L159.835 34.1291H156.461L155.906 35.7343H154.49L157.367 27.7652H158.929L161.794 35.7343H160.39ZM156.891 32.8996H159.405L158.148 29.3021L156.891 32.8996Z" fill="white"/>
<path d="M167.686 27.7652H168.988V35.7343H167.686V32.2848H164.289V35.7343H162.986V27.7652H164.289V31.0325H167.686V27.7652Z" fill="white"/>
<path d="M175.669 35.7343V30.3267L171.932 35.7343H170.913V27.7652H172.215V33.1728L175.952 27.7652H176.971V35.7343H175.669Z" fill="white"/>
<path d="M184.364 27.7652V35.7343H183.061V32.8313H181.804L179.891 35.7343H178.418L180.434 32.7174C179.913 32.5581 179.483 32.2583 179.143 31.8181C178.811 31.3703 178.645 30.8731 178.645 30.3267C178.645 29.6133 178.89 29.0099 179.381 28.5166C179.879 28.0156 180.483 27.7652 181.193 27.7652H184.364ZM181.193 31.6587H183.061V28.9947H181.193C180.846 28.9947 180.551 29.1237 180.31 29.3818C180.068 29.6398 179.947 29.9548 179.947 30.3267C179.947 30.6986 180.068 31.0136 180.31 31.2716C180.551 31.5297 180.846 31.6587 181.193 31.6587Z" fill="white"/>
<defs>
<linearGradient id="paint0_linear_3801_66" x1="18.9238" y1="-1.75101" x2="9.51534" y2="22.1109" gradientUnits="userSpaceOnUse">
<stop stop-color="#2D9E77"/>
<stop offset="1" stop-color="#A2D7B5"/>
</linearGradient>
</defs>
</svg>
