<svg width="64" height="75" viewBox="0 0 64 75" fill="none" xmlns="http://www.w3.org/2000/svg">
<g filter="url(#filter0_d_1718_19257)">
<path d="M36.3301 67.5C34.4056 70.8333 29.5944 70.8333 27.6699 67.5L22.4737 58.5C20.5492 55.1667 22.9548 51 26.8038 51L37.1962 51C41.0452 51 43.4508 55.1667 41.5263 58.5L36.3301 67.5Z" fill="white"/>
<circle cx="32" cy="32" r="28" fill="white"/>
</g>
<ellipse cx="12.1335" cy="12.0689" rx="12.1335" ry="12.0689" transform="matrix(-0.806534 0.591187 -0.605625 -0.79575 49.0748 31.2078)" fill="url(#paint0_linear_1718_19257)"/>
<path fill-rule="evenodd" clip-rule="evenodd" d="M48.0802 20.8632H43.7036C44.8153 22.3051 45.4918 23.5459 45.9714 24.9866C46.56 26.7543 46.6787 27.5546 46.6784 29.7547C46.6782 31.5749 46.6517 31.8628 46.3924 32.8728C45.8872 34.8405 45.3258 36.0813 44.2282 37.6569C42.1177 40.6864 38.8548 42.8329 35.1179 43.6503C34.1548 43.861 33.6949 43.8972 31.9979 43.8962C29.8262 43.8947 29.0237 43.777 27.3096 43.2087C25.1654 42.4976 23.3588 41.3837 21.6655 39.7285C19.0184 37.141 17.5575 33.9754 17.3036 30.2773C17.0923 27.2006 18.178 23.7475 20.2282 20.8632H16.0569C14.4672 22.8653 13.0418 25.8887 12.3577 28.8072C12.109 29.8686 12.0534 30.3857 12.0116 32.0322C11.9815 33.2152 12.0113 34.3666 12.0868 34.9346C13.2436 43.6372 20.1828 50.5473 29.0393 51.8161C30.8548 52.0762 33.4704 52.0589 35.2255 51.7755C40.7792 50.8782 45.6094 47.8508 48.6841 43.3402C50.391 40.8359 51.4137 38.2307 51.859 35.2521C52.1003 33.6375 52.0219 30.6143 51.6997 29.1084C50.9947 25.8149 49.645 22.8344 48.0802 20.8632Z" fill="#14A0C1"/>
<defs>
<filter id="filter0_d_1718_19257" x="0" y="0" width="64" height="74" filterUnits="userSpaceOnUse" color-interpolation-filters="sRGB">
<feFlood flood-opacity="0" result="BackgroundImageFix"/>
<feColorMatrix in="SourceAlpha" type="matrix" values="0 0 0 0 0 0 0 0 0 0 0 0 0 0 0 0 0 0 127 0" result="hardAlpha"/>
<feOffset/>
<feGaussianBlur stdDeviation="2"/>
<feComposite in2="hardAlpha" operator="out"/>
<feColorMatrix type="matrix" values="0 0 0 0 0.109804 0 0 0 0 0.117647 0 0 0 0 0.117647 0 0 0 0.5 0"/>
<feBlend mode="normal" in2="BackgroundImageFix" result="effect1_dropShadow_1718_19257"/>
<feBlend mode="normal" in="SourceGraphic" in2="effect1_dropShadow_1718_19257" result="shape"/>
</filter>
<linearGradient id="paint0_linear_1718_19257" x1="19.7179" y1="-1.81185" x2="10.0319" y2="22.9252" gradientUnits="userSpaceOnUse">
<stop stop-color="#2D9E77"/>
<stop offset="1" stop-color="#A2D7B5"/>
</linearGradient>
</defs>
</svg>
