<svg width="40" height="36" viewBox="0 0 40 36" fill="none" xmlns="http://www.w3.org/2000/svg">
<ellipse cx="12.1335" cy="12.0689" rx="12.1335" ry="12.0689" transform="matrix(-0.806534 0.591187 -0.605625 -0.79575 37.0752 15.208)" fill="url(#paint0_linear_1718_21102)"/>
<path fill-rule="evenodd" clip-rule="evenodd" d="M36.0802 4.86328H31.7036C32.8153 6.30524 33.4918 7.54601 33.9714 8.9867C34.56 10.7544 34.6787 11.5548 34.6784 13.7548C34.6782 15.575 34.6517 15.8629 34.3924 16.873C33.8872 18.8406 33.3258 20.0815 32.2282 21.657C30.1177 24.6865 26.8548 26.833 23.1179 27.6505C22.1548 27.8611 21.6949 27.8973 19.9979 27.8963C17.8262 27.8948 17.0237 27.7771 15.3096 27.2088C13.1654 26.4977 11.3588 25.3838 9.66548 23.7286C7.01841 21.1411 5.55749 17.9756 5.30358 14.2775C5.09231 11.2007 6.17803 7.74766 8.22815 4.86328H4.05693C2.46722 6.86545 1.04179 9.88881 0.357701 12.8073C0.10896 13.8687 0.053445 14.3858 0.0115937 16.0323C-0.0185307 17.2153 0.011271 18.3667 0.086797 18.9347C1.24357 27.6373 8.18283 34.5474 17.0393 35.8162C18.8548 36.0763 21.4704 36.0591 23.2255 35.7756C28.7792 34.8784 33.6094 31.851 36.6841 27.3403C38.391 24.8361 39.4137 22.2308 39.859 19.2522C40.1003 17.6376 40.0219 14.6145 39.6997 13.1086C38.9947 9.815 37.645 6.83452 36.0802 4.86328Z" fill="#14A0C1"/>
<defs>
<linearGradient id="paint0_linear_1718_21102" x1="19.7179" y1="-1.81185" x2="10.0319" y2="22.9252" gradientUnits="userSpaceOnUse">
<stop stop-color="#2D9E77"/>
<stop offset="1" stop-color="#A2D7B5"/>
</linearGradient>
</defs>
</svg>
