<svg width="24" height="24" viewBox="0 0 24 24" fill="none" xmlns="http://www.w3.org/2000/svg">
<path d="M14.7148 2C10.9941 2 7.96484 5.0293 7.96484 8.75C7.96484 10.3379 8.53906 11.7852 9.46484 12.9395L2 20.4043L3.05469 21.4707L10.5254 14C11.6797 14.9258 13.127 15.5 14.7148 15.5C18.4355 15.5 21.4648 12.4707 21.4648 8.75C21.4648 5.0293 18.4355 2 14.7148 2ZM14.7148 3.5C17.6211 3.5 19.9648 5.84375 19.9648 8.75C19.9648 11.6562 17.6211 14 14.7148 14C11.8086 14 9.46484 11.6562 9.46484 8.75C9.46484 5.84375 11.8086 3.5 14.7148 3.5Z" fill="white"/>
</svg>
