<svg width="27" height="24" viewBox="0 0 27 24" fill="none" xmlns="http://www.w3.org/2000/svg">
<path fill-rule="evenodd" clip-rule="evenodd" d="M22.6453 22.3866V22.3839L22.6693 22.3266L26.6679 2.16659V2.10259C26.6679 1.59992 26.4813 1.16126 26.0786 0.898591C25.7253 0.667924 25.3186 0.651924 25.0333 0.673258C24.7677 0.697279 24.5056 0.750946 24.2519 0.833257C24.1438 0.868131 24.037 0.907273 23.9319 0.950591L23.9146 0.957257L1.62126 9.70259L1.6146 9.70526C1.54682 9.7284 1.48048 9.75556 1.41593 9.78659C1.25738 9.85782 1.10526 9.94258 0.961263 10.0399C0.674597 10.2373 0.129263 10.7013 0.221263 11.4373C0.297263 12.0479 0.717263 12.4346 1.00126 12.6359C1.1689 12.7534 1.34912 12.8518 1.5386 12.9293L1.58126 12.9479L1.5946 12.9519L1.60393 12.9559L5.50526 14.2693C5.49193 14.5133 5.51593 14.7626 5.58126 15.0093L7.5346 22.4213C7.64131 22.8253 7.87189 23.1857 8.19396 23.452C8.51603 23.7183 8.91341 23.8769 9.3303 23.9058C9.74718 23.9346 10.1626 23.8321 10.5183 23.6127C10.8739 23.3934 11.152 23.0681 11.3133 22.6826L14.3639 19.4213L19.6026 23.4373L19.6773 23.4693C20.1533 23.6773 20.5973 23.7426 21.0039 23.6879C21.4106 23.6319 21.7333 23.4613 21.9759 23.2679C22.2566 23.0404 22.4803 22.7505 22.6293 22.4213L22.6399 22.3986L22.6439 22.3906L22.6453 22.3866ZM7.5146 14.4999C7.49297 14.4177 7.49811 14.3307 7.52928 14.2516C7.56044 14.1724 7.61602 14.1053 7.68793 14.0599L20.9159 5.65992C20.9159 5.65992 21.6946 5.18659 21.6666 5.65992C21.6666 5.65992 21.8053 5.74259 21.3879 6.13059C20.9933 6.49992 11.9599 15.2213 11.0453 16.1039C10.9944 16.1533 10.9588 16.2162 10.9426 16.2853L9.46793 21.9119L7.5146 14.4986V14.4999Z" fill="#1C1E1E"/>
</svg>
