<svg width="14" height="12" viewBox="0 0 14 12" fill="none" xmlns="http://www.w3.org/2000/svg">
<path fill-rule="evenodd" clip-rule="evenodd" d="M11.3226 11.1931V11.1918L11.3346 11.1631L13.334 1.08313V1.05113C13.334 0.799794 13.2406 0.580461 13.0393 0.449128C12.8626 0.333794 12.6593 0.325794 12.5166 0.336461C12.3838 0.348472 12.2528 0.375305 12.126 0.416461C12.0719 0.433898 12.0185 0.453468 11.966 0.475128L11.9573 0.478461L0.810632 4.85113L0.807298 4.85246C0.773409 4.86403 0.74024 4.87761 0.707965 4.89313C0.628691 4.92874 0.552632 4.97112 0.480632 5.01979C0.337298 5.11846 0.0646316 5.35046 0.110632 5.71846C0.148632 6.02379 0.358632 6.21713 0.500632 6.31779C0.584448 6.37653 0.674562 6.42573 0.769298 6.46446L0.790632 6.47379L0.797298 6.47579L0.801965 6.47779L2.75263 7.13446C2.74596 7.25646 2.75797 7.38113 2.79063 7.50446L3.7673 11.2105C3.82065 11.4125 3.93594 11.5927 4.09698 11.7258C4.25802 11.859 4.45671 11.9383 4.66515 11.9527C4.87359 11.9671 5.08131 11.9159 5.25914 11.8062C5.43697 11.6965 5.57598 11.5339 5.65663 11.3411L7.18197 9.71046L9.8013 11.7185L9.83863 11.7345C10.0766 11.8385 10.2986 11.8711 10.502 11.8438C10.7053 11.8158 10.8666 11.7305 10.988 11.6338C11.1283 11.52 11.2402 11.3751 11.3146 11.2105L11.32 11.1991L11.322 11.1951L11.3226 11.1931ZM3.7573 7.24979C3.74648 7.20867 3.74905 7.16518 3.76464 7.12562C3.78022 7.08605 3.80801 7.05249 3.84397 7.02979L10.458 2.82979C10.458 2.82979 10.8473 2.59313 10.8333 2.82979C10.8333 2.82979 10.9026 2.87113 10.694 3.06513C10.4966 3.24979 5.97996 7.61046 5.52263 8.05179C5.4972 8.07649 5.47939 8.10795 5.4713 8.14246L4.73397 10.9558L3.7573 7.24913V7.24979Z" fill="white"/>
</svg>
