<svg width="16" height="16" viewBox="0 0 16 16" fill="none" xmlns="http://www.w3.org/2000/svg">
<path d="M14.3353 12.2541H12.8147C12.2393 12.2541 12.066 11.7881 11.0347 10.7561C10.1333 9.88739 9.75267 9.77939 9.52467 9.77939C9.20933 9.77939 9.12333 9.86606 9.12333 10.3001V11.6681C9.12333 12.0381 9.00333 12.2547 8.03667 12.2547C7.09886 12.1917 6.18944 11.9068 5.38331 11.4235C4.57718 10.9402 3.89742 10.2722 3.4 9.47473C2.21892 8.00474 1.39714 6.27945 1 4.43606C1 4.20806 1.08667 4.00139 1.52133 4.00139H3.04133C3.432 4.00139 3.57267 4.17539 3.726 4.57739C4.464 6.74939 5.72333 8.63873 6.23467 8.63873C6.43067 8.63873 6.516 8.55206 6.516 8.06339V5.82606C6.45133 4.80539 5.90933 4.71939 5.90933 4.35006C5.91619 4.25262 5.96076 4.16169 6.03358 4.09659C6.1064 4.03148 6.20174 3.99733 6.29933 4.00139H8.68867C9.01533 4.00139 9.12333 4.16406 9.12333 4.55473V7.57473C9.12333 7.90073 9.26333 8.00873 9.362 8.00873C9.558 8.00873 9.70867 7.90073 10.068 7.54206C10.8382 6.60272 11.4675 5.55617 11.936 4.43539C11.984 4.30083 12.0746 4.18564 12.1941 4.1074C12.3137 4.02917 12.4555 3.99217 12.598 4.00206H14.1187C14.5747 4.00206 14.6713 4.23006 14.5747 4.55539C14.0216 5.79434 13.3372 6.97039 12.5333 8.06339C12.3693 8.31339 12.304 8.44339 12.5333 8.73673C12.684 8.96473 13.2173 9.41006 13.5753 9.83339C14.0967 10.3534 14.5293 10.9547 14.8567 11.6134C14.9873 12.0374 14.7693 12.2541 14.3353 12.2541Z" fill="white"/>
</svg>
