<svg width="28" height="17" viewBox="0 0 28 17" fill="none" xmlns="http://www.w3.org/2000/svg">
<path d="M26.6707 16.508H23.6293C22.4787 16.508 22.132 15.576 20.0693 13.512C18.2667 11.7747 17.5053 11.5587 17.0493 11.5587C16.4187 11.5587 16.2467 11.732 16.2467 12.6V15.336C16.2467 16.076 16.0067 16.5093 14.0733 16.5093C12.1977 16.3833 10.3789 15.8135 8.76662 14.8469C7.15437 13.8802 5.79483 12.5444 4.8 10.9493C2.43785 8.00936 0.794277 4.55877 0 0.871997C0 0.415997 0.173333 0.00266357 1.04267 0.00266357H4.08267C4.864 0.00266357 5.14533 0.350664 5.452 1.15466C6.928 5.49866 9.44667 9.27733 10.4693 9.27733C10.8613 9.27733 11.032 9.104 11.032 8.12666V3.652C10.9027 1.61066 9.81867 1.43866 9.81867 0.699997C9.83238 0.505118 9.92152 0.323262 10.0672 0.193054C10.2128 0.0628473 10.4035 -0.00545217 10.5987 0.00266357H15.3773C16.0307 0.00266357 16.2467 0.327997 16.2467 1.10933V7.14933C16.2467 7.80133 16.5267 8.01733 16.724 8.01733C17.116 8.01733 17.4173 7.80133 18.136 7.084C19.6765 5.20531 20.935 3.11222 21.872 0.870664C21.9679 0.601535 22.1492 0.371163 22.3883 0.214686C22.6273 0.0582099 22.911 -0.0157821 23.196 0.0039968H26.2373C27.1493 0.0039968 27.3427 0.459997 27.1493 1.11066C26.0432 3.58855 24.6744 5.94067 23.0667 8.12666C22.7387 8.62666 22.608 8.88666 23.0667 9.47333C23.368 9.92933 24.4347 10.82 25.1507 11.6667C26.1933 12.7067 27.0587 13.9093 27.7133 15.2267C27.9747 16.0747 27.5387 16.508 26.6707 16.508Z" fill="#1C1E1E"/>
</svg>
