<svg width="16" height="17" viewBox="0 0 16 17" fill="none" xmlns="http://www.w3.org/2000/svg">
<path d="M14.3353 12.7541H12.8147C12.2393 12.7541 12.066 12.2881 11.0347 11.2561C10.1333 10.3874 9.75267 10.2794 9.52467 10.2794C9.20933 10.2794 9.12333 10.3661 9.12333 10.8001V12.1681C9.12333 12.5381 9.00333 12.7547 8.03667 12.7547C7.09886 12.6917 6.18944 12.4068 5.38331 11.9235C4.57718 11.4402 3.89742 10.7722 3.4 9.97473C2.21892 8.50474 1.39714 6.77945 1 4.93606C1 4.70806 1.08667 4.50139 1.52133 4.50139H3.04133C3.432 4.50139 3.57267 4.67539 3.726 5.07739C4.464 7.24939 5.72333 9.13873 6.23467 9.13873C6.43067 9.13873 6.516 9.05206 6.516 8.56339V6.32606C6.45133 5.30539 5.90933 5.21939 5.90933 4.85006C5.91619 4.75262 5.96076 4.66169 6.03358 4.59659C6.1064 4.53148 6.20174 4.49733 6.29933 4.50139H8.68867C9.01533 4.50139 9.12333 4.66406 9.12333 5.05473V8.07473C9.12333 8.40073 9.26333 8.50873 9.362 8.50873C9.558 8.50873 9.70867 8.40073 10.068 8.04206C10.8382 7.10272 11.4675 6.05617 11.936 4.93539C11.984 4.80083 12.0746 4.68564 12.1941 4.6074C12.3137 4.52917 12.4555 4.49217 12.598 4.50206H14.1187C14.5747 4.50206 14.6713 4.73006 14.5747 5.05539C14.0216 6.29434 13.3372 7.47039 12.5333 8.56339C12.3693 8.81339 12.304 8.94339 12.5333 9.23673C12.684 9.46473 13.2173 9.91006 13.5753 10.3334C14.0967 10.8534 14.5293 11.4547 14.8567 12.1134C14.9873 12.5374 14.7693 12.7541 14.3353 12.7541Z" fill="#1D6CB5"/>
</svg>
